<svg width="33" height="28" viewBox="0 0 33 28" fill="none" xmlns="http://www.w3.org/2000/svg">
<path d="M28.527 0.566711H4.42828C2.24641 0.566711 0.477661 2.34209 0.477661 4.53213V23.9627C0.477661 26.1528 2.24641 27.9281 4.42828 27.9281H28.527C30.7089 27.9281 32.4777 26.1528 32.4777 23.9627V4.53213C32.4777 2.34209 30.7089 0.566711 28.527 0.566711Z" fill="black"/>
<path d="M20.8982 7.65645C20.9656 7.28157 25.7721 9.65373 25.5695 9.86381C24.557 11.35 23.6891 13.028 22.9242 14.7978C22.1587 16.5687 21.4908 18.4296 20.8437 20.3139C20.696 20.722 19.1543 20.4361 19.1238 19.9846C19.124 19.9789 19.1244 19.9732 19.1246 19.9675C19.102 19.9462 19.0819 19.9226 19.0683 19.8932C18.4503 18.2373 17.8442 16.5857 17.1776 14.9823C16.9736 14.4935 16.763 14.0087 16.5458 13.5304C16.3007 14.0544 16.0585 14.5822 15.8202 15.1147L13.7576 19.8023C13.7578 19.8588 13.7589 19.9155 13.7589 19.972C13.7529 20.4048 12.1994 20.6169 12.0264 20.2262C11.4733 18.4068 10.8169 16.6313 10.066 14.9224C9.3138 13.2156 8.46317 11.5721 7.50676 10.0648C7.30998 9.84771 12.2001 7.65545 12.2476 8.01248C12.8009 10.0264 13.1631 12.028 13.4045 14.0212C13.4707 14.5771 13.5266 15.1323 13.5742 15.6867L13.8549 14.4498C14.0593 13.574 14.2713 12.6961 14.5057 11.814C14.7414 10.9313 14.9948 10.0462 15.3153 9.14216C15.349 9.01036 15.876 9.18108 16.4654 9.43942C17.088 9.14354 17.67 8.93214 17.7076 9.06962C18.3752 10.8474 18.7993 12.615 19.1609 14.3731C19.2457 14.7912 19.3255 15.2089 19.4027 15.626C19.4545 15.0532 19.5137 14.4785 19.5846 13.9009C19.8383 11.8469 20.2294 9.75483 20.8982 7.65645Z" fill="white"/>
</svg>
