<svg width="362" height="57" viewBox="0 0 362 57" fill="none" xmlns="http://www.w3.org/2000/svg">
<g clip-path="url(#clip0_44_2)">
<path d="M57.8857 0.232086H8.5633C4.09772 0.232086 0.477661 3.86572 0.477661 8.34803V48.1161C0.477661 52.5984 4.09772 56.2321 8.5633 56.2321H57.8857C62.3513 56.2321 65.9713 52.5984 65.9713 48.1161V8.34803C65.9713 3.86572 62.3513 0.232086 57.8857 0.232086Z" fill="black"/>
<path d="M42.272 14.7425C42.41 13.9752 52.2472 18.8303 51.8325 19.2602C49.7603 22.3021 47.984 25.7363 46.4184 29.3585C44.8518 32.983 43.4849 36.7917 42.1603 40.6482C41.8581 41.4834 38.7028 40.8983 38.6403 39.9742C38.6407 39.9625 38.6415 39.9509 38.6419 39.9393C38.5957 39.8957 38.5546 39.8473 38.5267 39.7872C37.2618 36.3981 36.0214 33.0177 34.6571 29.7362C34.2396 28.7357 33.8085 27.7435 33.3639 26.7645C32.8623 27.8371 32.3667 28.9173 31.879 30.0072L27.6574 39.601C27.6578 39.7167 27.6602 39.8328 27.6602 39.9485C27.6479 40.8342 24.4683 41.2684 24.1142 40.4688C22.9822 36.745 21.6388 33.1111 20.1019 29.6136C18.5624 26.1204 16.8215 22.7566 14.864 19.6715C14.4613 19.2273 24.4697 14.7404 24.5669 15.4712C25.6994 19.593 26.4407 23.6897 26.9347 27.769C27.0703 28.9069 27.1847 30.0431 27.282 31.1778L27.8566 28.6464C28.2749 26.8537 28.7088 25.0571 29.1885 23.2516C29.6709 21.445 30.1897 19.6335 30.8456 17.7833C30.9146 17.5135 31.9932 17.8629 33.1994 18.3916C34.4738 17.7861 35.6648 17.3534 35.7418 17.6348C37.1082 21.2733 37.9763 24.8911 38.7163 28.4893C38.8897 29.3451 39.0532 30.1999 39.2111 31.0536C39.3172 29.8813 39.4384 28.7051 39.5835 27.5228C40.1027 23.319 40.9032 19.0372 42.272 14.7425Z" fill="white"/>
<path d="M108.547 19.1034C109.557 19.6104 109.967 20.8441 109.461 21.8587L101.917 37.0046C101.57 37.7003 100.862 38.1398 100.087 38.1398C99.3118 38.1398 98.6031 37.7003 98.2568 37.0046L96.8535 34.1873L95.4502 37.0046C95.1037 37.7003 94.3952 38.1398 93.6203 38.1398C92.8455 38.1398 92.1369 37.7003 91.7904 37.0046L84.2457 21.8587C83.7404 20.8442 84.1501 19.6107 85.1606 19.1034C86.1713 18.5962 87.4002 19.0072 87.9056 20.0219L93.6204 31.4945L99.3353 20.0219C99.8404 19.0072 101.07 18.5967 102.08 19.1034C103.091 19.6107 103.5 20.8441 102.995 21.8587L99.1414 29.5951L100.087 31.4941L105.802 20.0215C106.307 19.0067 107.536 18.5967 108.547 19.1034ZM119.235 18.8865C124.523 18.8865 128.826 23.2047 128.826 28.513C128.826 29.6472 127.909 30.5667 126.78 30.5667H114.131C114.944 32.596 116.926 34.0323 119.235 34.0323C120.704 34.0323 122.085 33.4583 123.123 32.4158C123.923 31.6138 125.218 31.614 126.017 32.4158C126.816 33.218 126.816 34.5182 126.017 35.3202C124.205 37.1384 121.797 38.1396 119.235 38.1396C113.947 38.1396 109.644 33.8214 109.644 28.513C109.644 23.2047 113.946 18.8865 119.235 18.8865ZM114.131 26.4594H124.339C123.526 24.4301 121.545 22.9938 119.235 22.9938C116.926 22.9938 114.944 24.4301 114.131 26.4594ZM140.204 18.9379C145.478 18.9379 149.77 23.2449 149.77 28.5392C149.77 33.8336 145.479 38.1406 140.204 38.1406C138.159 38.1406 136.263 37.4908 134.706 36.389C134.56 37.3796 133.712 38.1406 132.685 38.1406C131.555 38.1406 130.639 37.221 130.639 36.0869V14.0096C130.639 12.8754 131.555 11.956 132.685 11.956C133.815 11.956 134.731 12.8755 134.731 14.0096V20.6723C136.283 19.5812 138.17 18.9379 140.204 18.9379ZM140.204 34.0324C143.222 34.0324 145.677 31.5679 145.677 28.5389C145.677 25.5098 143.222 23.0453 140.204 23.0453C137.186 23.0453 134.731 25.5098 134.731 28.5389C134.731 31.5679 137.186 34.0324 140.204 34.0324ZM161.124 18.8865C166.398 18.8865 170.688 23.1935 170.688 28.4878C170.688 33.7821 166.397 38.0891 161.123 38.0891C159.088 38.0891 157.202 37.4461 155.65 36.3551V43.018C155.65 44.1522 154.734 45.0716 153.604 45.0716C152.474 45.0716 151.558 44.1521 151.558 43.018V20.9406C151.558 19.8065 152.474 18.887 153.604 18.887C154.631 18.887 155.479 19.6479 155.625 20.6386C157.182 19.5368 159.079 18.8865 161.124 18.8865ZM161.124 33.9808C164.142 33.9808 166.597 31.5163 166.597 28.4872C166.597 25.4581 164.142 22.9937 161.124 22.9937C158.106 22.9937 155.651 25.4581 155.651 28.4872C155.651 31.5163 158.106 33.9808 161.124 33.9808ZM189.613 18.8865C190.743 18.8865 191.659 19.806 191.659 20.9401V36.086C191.659 37.2202 190.743 38.1396 189.613 38.1396C188.582 38.1396 187.731 37.3731 187.59 36.3768C186.028 37.4856 184.123 38.1396 182.069 38.1396C176.78 38.1396 172.478 33.8214 172.478 28.513C172.478 23.2047 176.78 18.8865 182.069 18.8865C184.123 18.8865 186.028 19.5406 187.59 20.6492C187.731 19.6529 188.582 18.8865 189.613 18.8865ZM182.069 34.0324C185.101 34.0324 187.568 31.5564 187.568 28.513C187.568 25.4696 185.101 22.9937 182.069 22.9937C179.037 22.9937 176.57 25.4696 176.57 28.513C176.57 31.5564 179.037 34.0324 182.069 34.0324ZM206.952 32.4157C207.751 31.6137 209.046 31.6136 209.845 32.4158C210.645 33.2177 210.645 34.518 209.845 35.32C208.034 37.1383 205.626 38.1395 203.064 38.1395C197.775 38.1395 193.473 33.8212 193.473 28.5129C193.473 23.2045 197.775 18.8863 203.064 18.8863C205.626 18.8863 208.034 19.8875 209.845 21.706C210.644 22.508 210.644 23.8082 209.845 24.6102C209.046 25.4122 207.751 25.4122 206.952 24.6102C205.913 23.5677 204.532 22.9937 203.064 22.9937C200.032 22.9937 197.565 25.4697 197.565 28.5131C197.565 31.5565 200.032 34.0324 203.064 34.0324C204.532 34.0324 205.913 33.4582 206.952 32.4157ZM224.726 28.5383L230.799 34.6337C231.598 35.4357 231.598 36.736 230.799 37.5379C230.399 37.9389 229.876 38.1394 229.352 38.1394C228.828 38.1394 228.305 37.9389 227.905 37.5379L221.833 31.4429L215.761 37.5379C215.369 37.9307 214.846 38.1394 214.314 38.1394C214.05 38.1394 213.784 38.0883 213.531 37.9831C212.767 37.6653 212.268 36.9164 212.268 36.0857V14.0102C212.268 12.8761 213.184 11.9566 214.314 11.9566C215.444 11.9566 216.36 12.8762 216.36 14.0102V31.1284L227.905 19.5399C228.704 18.7379 230 18.7379 230.799 19.5399C231.598 20.3418 231.598 21.6421 230.799 22.4441L224.726 28.5383ZM245.06 26.4594C248.268 26.4594 250.879 29.0794 250.879 32.2997C250.879 35.52 248.268 38.14 245.06 38.14H237.515C236.385 38.14 235.469 37.2205 235.469 36.0864C235.469 34.9523 236.386 34.0328 237.515 34.0328H245.06C246.012 34.0328 246.786 33.2555 246.786 32.3C246.786 31.3445 246.012 30.5672 245.06 30.5672H237.515C234.307 30.5672 231.697 27.9473 231.697 24.7269C231.697 21.5066 234.307 18.8867 237.515 18.8867H245.06C246.19 18.8867 247.106 19.8062 247.106 20.9403C247.106 22.0744 246.19 22.9939 245.06 22.9939H237.515C236.564 22.9939 235.789 23.7712 235.789 24.7267C235.789 25.6821 236.564 26.4594 237.515 26.4594H245.06ZM261.909 18.8865C267.198 18.8865 271.5 23.2047 271.5 28.513C271.5 33.8214 267.198 38.1396 261.909 38.1396C256.621 38.1396 252.319 33.8214 252.319 28.513C252.319 23.2047 256.621 18.8865 261.909 18.8865ZM261.909 34.0324C264.941 34.0324 267.408 31.5564 267.408 28.513C267.408 25.4696 264.941 22.9937 261.909 22.9937C258.877 22.9937 256.411 25.4696 256.411 28.513C256.411 31.5564 258.877 34.0324 261.909 34.0324ZM283.057 34.0324C284.187 34.0324 285.104 34.952 285.104 36.0861C285.104 37.2203 284.187 38.1397 283.058 38.1397C277.685 38.1397 273.313 33.7519 273.313 28.3588V14.0087C273.313 12.8746 274.229 11.9551 275.359 11.9551C276.489 11.9551 277.405 12.8746 277.405 14.0087V28.3588C277.405 31.4872 279.941 34.0324 283.057 34.0324ZM302.201 18.8865C303.33 18.8865 304.246 19.806 304.246 20.9401V28.513C304.246 33.8214 299.944 38.1396 294.656 38.1396C289.367 38.1396 285.065 33.8214 285.065 28.513V20.9401C285.065 19.8059 285.981 18.8865 287.111 18.8865C288.241 18.8865 289.157 19.806 289.157 20.9401V28.513C289.157 31.5564 291.624 34.0324 294.656 34.0324C297.688 34.0324 300.155 31.5564 300.155 28.513V20.9401C300.155 19.8059 301.071 18.8865 302.201 18.8865ZM315.804 34.0324C316.934 34.0324 317.85 34.952 317.85 36.0861C317.85 37.2203 316.934 38.1397 315.804 38.1397C310.431 38.1397 306.06 33.7519 306.06 28.3588V14.0087C306.06 12.8746 306.976 11.9551 308.106 11.9551C309.235 11.9551 310.152 12.8746 310.152 14.0087V18.8919H315.804C316.934 18.8919 317.85 19.8114 317.85 20.9455C317.85 22.0796 316.933 22.9991 315.804 22.9991H310.152V28.3587C310.152 31.4871 312.687 34.0324 315.804 34.0324ZM321.721 18.8865C322.851 18.8865 323.767 19.806 323.767 20.9401V36.086C323.767 37.2202 322.851 38.1396 321.721 38.1396C320.591 38.1396 319.675 37.2201 319.675 36.086V20.9401C319.675 19.8059 320.591 18.8865 321.721 18.8865ZM319.831 14.7942C319.78 14.671 319.741 14.54 319.716 14.4091C319.688 14.2782 319.675 14.1421 319.675 14.0086C319.675 13.8751 319.688 13.7391 319.716 13.6081C319.741 13.4772 319.78 13.3463 319.831 13.2231C319.882 13.0999 319.946 12.9792 320.02 12.8688C320.094 12.7559 320.179 12.6506 320.273 12.5556C320.368 12.4607 320.473 12.3759 320.585 12.3015C320.695 12.227 320.816 12.1629 320.938 12.1115C321.061 12.0602 321.192 12.0217 321.322 11.996C321.987 11.86 322.693 12.0807 323.169 12.5557C323.261 12.6506 323.348 12.7559 323.422 12.8688C323.496 12.9792 323.56 13.0999 323.611 13.2231C323.662 13.3463 323.7 13.4772 323.726 13.6082C323.754 13.7391 323.767 13.8752 323.767 14.0086C323.767 14.1421 323.754 14.2782 323.726 14.4091C323.7 14.54 323.662 14.671 323.611 14.7942C323.56 14.9174 323.496 15.0381 323.422 15.1485C323.348 15.2614 323.261 15.3666 323.169 15.4616C323.074 15.5566 322.969 15.6413 322.857 15.7158C322.747 15.7902 322.626 15.8544 322.504 15.9057C322.381 15.957 322.25 15.9955 322.12 16.0212C321.99 16.0495 321.854 16.0623 321.721 16.0623C321.588 16.0623 321.452 16.0495 321.322 16.0212C321.192 15.9955 321.061 15.957 320.938 15.9057C320.816 15.8544 320.695 15.7902 320.585 15.7158C320.473 15.6413 320.368 15.5566 320.273 15.4616C320.179 15.3666 320.094 15.2614 320.02 15.1485C319.946 15.0381 319.882 14.9174 319.831 14.7942ZM335.204 18.8865C340.493 18.8865 344.795 23.2047 344.795 28.513C344.795 33.8214 340.493 38.1396 335.204 38.1396C329.916 38.1396 325.613 33.8214 325.613 28.513C325.613 23.2047 329.916 18.8865 335.204 18.8865ZM335.204 34.0324C338.236 34.0324 340.703 31.5564 340.703 28.513C340.703 25.4696 338.236 22.9937 335.204 22.9937C332.172 22.9937 329.705 25.4696 329.705 28.513C329.705 31.5564 332.172 34.0324 335.204 34.0324ZM354.043 18.8865C358.143 18.8865 361.478 22.2345 361.478 26.3494V36.0864C361.478 37.2206 360.562 38.14 359.432 38.14C358.302 38.14 357.386 37.2205 357.386 36.0864V26.3494C357.386 24.4993 355.886 22.994 354.043 22.994C352.199 22.994 350.7 24.499 350.7 26.3494V36.0864C350.7 37.2206 349.784 38.14 348.654 38.14C347.524 38.14 346.608 37.2205 346.608 36.0864V20.9405C346.608 19.8063 347.524 18.8868 348.654 18.8868C349.386 18.8868 350.027 19.2742 350.388 19.8546C351.468 19.2398 352.715 18.8865 354.043 18.8865Z" fill="black"/>
</g>
<defs>
<clipPath id="clip0_44_2">
<rect width="361" height="56" fill="white" transform="translate(0.477661 0.232086)"/>
</clipPath>
</defs>
</svg>
