<svg width="362" height="57" viewBox="0 0 362 57" fill="none" xmlns="http://www.w3.org/2000/svg">
<g clip-path="url(#clip0_24_56)">
<path d="M57.8857 0.54277H8.5633C4.09772 0.54277 0.477661 4.1764 0.477661 8.65871V48.4268C0.477661 52.9091 4.09772 56.5428 8.5633 56.5428H57.8857C62.3513 56.5428 65.9713 52.9091 65.9713 48.4268V8.65871C65.9713 4.1764 62.3513 0.54277 57.8857 0.54277Z" fill="white"/>
<path d="M42.272 15.0532C42.41 14.2859 52.2472 19.141 51.8325 19.5709C49.7603 22.6127 47.984 26.047 46.4184 29.6692C44.8518 33.2937 43.4849 37.1024 42.1603 40.9589C41.8581 41.7941 38.7028 41.209 38.6403 40.2849C38.6407 40.2732 38.6415 40.2616 38.6419 40.25C38.5957 40.2064 38.5546 40.158 38.5267 40.0979C37.2618 36.7088 36.0214 33.3284 34.6571 30.0469C34.2396 29.0464 33.8085 28.0542 33.3639 27.0752C32.8623 28.1478 32.3667 29.228 31.879 30.3179L27.6574 39.9117C27.6578 40.0274 27.6602 40.1435 27.6602 40.2592C27.6479 41.1449 24.4683 41.5791 24.1142 40.7795C22.9822 37.0557 21.6388 33.4218 20.1019 29.9243C18.5624 26.431 16.8215 23.0672 14.864 19.9822C14.4613 19.538 24.4697 15.0511 24.5669 15.7819C25.6994 19.9036 26.4407 24.0004 26.9347 28.0797C27.0703 29.2176 27.1847 30.3538 27.282 31.4885L27.8566 28.957C28.2749 27.1644 28.7088 25.3678 29.1885 23.5623C29.6709 21.7557 30.1897 19.9442 30.8456 18.0939C30.9146 17.8242 31.9932 18.1736 33.1994 18.7023C34.4738 18.0968 35.6648 17.6641 35.7418 17.9455C37.1082 21.584 37.9763 25.2018 38.7163 28.8C38.8897 29.6557 39.0532 30.5106 39.2111 31.3643C39.3172 30.192 39.4384 29.0158 39.5835 27.8334C40.1027 23.6297 40.9032 19.3479 42.272 15.0532Z" fill="black"/>
<path d="M108.547 19.4141C109.557 19.9211 109.967 21.1548 109.461 22.1694L101.917 37.3153C101.57 38.011 100.862 38.4505 100.087 38.4505C99.3118 38.4505 98.6031 38.011 98.2568 37.3153L96.8535 34.4979L95.4502 37.3153C95.1037 38.011 94.3952 38.4505 93.6203 38.4505C92.8455 38.4505 92.1369 38.011 91.7904 37.3153L84.2457 22.1694C83.7404 21.1549 84.1501 19.9213 85.1606 19.4141C86.1713 18.9069 87.4002 19.3178 87.9056 20.3326L93.6204 31.8052L99.3353 20.3326C99.8404 19.3179 101.07 18.9073 102.08 19.4141C103.091 19.9213 103.5 21.1548 102.995 22.1694L99.1414 29.9058L100.087 31.8047L105.802 20.3321C106.307 19.3174 107.536 18.9073 108.547 19.4141ZM119.235 19.1971C124.523 19.1971 128.826 23.5154 128.826 28.8237C128.826 29.9579 127.909 30.8773 126.78 30.8773H114.131C114.944 32.9067 116.926 34.343 119.235 34.343C120.704 34.343 122.085 33.769 123.123 32.7264C123.923 31.9245 125.218 31.9247 126.017 32.7264C126.816 33.5287 126.816 34.8289 126.017 35.6309C124.205 37.4491 121.797 38.4503 119.235 38.4503C113.947 38.4503 109.644 34.1321 109.644 28.8237C109.644 23.5154 113.946 19.1971 119.235 19.1971ZM114.131 26.7701H124.339C123.526 24.7408 121.545 23.3045 119.235 23.3045C116.926 23.3045 114.944 24.7408 114.131 26.7701ZM140.204 19.2486C145.478 19.2486 149.77 23.5556 149.77 28.8499C149.77 34.1442 145.479 38.4512 140.204 38.4512C138.159 38.4512 136.263 37.8015 134.706 36.6997C134.56 37.6903 133.712 38.4512 132.685 38.4512C131.555 38.4512 130.639 37.5317 130.639 36.3976V14.3203C130.639 13.1861 131.555 12.2666 132.685 12.2666C133.815 12.2666 134.731 13.1862 134.731 14.3203V20.9829C136.283 19.8919 138.17 19.2486 140.204 19.2486ZM140.204 34.3431C143.222 34.3431 145.677 31.8786 145.677 28.8495C145.677 25.8204 143.222 23.356 140.204 23.356C137.186 23.356 134.731 25.8204 134.731 28.8495C134.731 31.8786 137.186 34.3431 140.204 34.3431ZM161.124 19.1971C166.398 19.1971 170.688 23.5041 170.688 28.7985C170.688 34.0928 166.397 38.3998 161.123 38.3998C159.088 38.3998 157.202 37.7568 155.65 36.6657V43.3287C155.65 44.4629 154.734 45.3823 153.604 45.3823C152.474 45.3823 151.558 44.4628 151.558 43.3287V21.2513C151.558 20.1172 152.474 19.1977 153.604 19.1977C154.631 19.1977 155.479 19.9586 155.625 20.9493C157.182 19.8475 159.079 19.1971 161.124 19.1971ZM161.124 34.2914C164.142 34.2914 166.597 31.827 166.597 28.7979C166.597 25.7688 164.142 23.3044 161.124 23.3044C158.106 23.3044 155.651 25.7688 155.651 28.7979C155.651 31.827 158.106 34.2914 161.124 34.2914ZM189.613 19.1971C190.743 19.1971 191.659 20.1167 191.659 21.2508V36.3967C191.659 37.5309 190.743 38.4503 189.613 38.4503C188.582 38.4503 187.731 37.6838 187.59 36.6875C186.028 37.7963 184.123 38.4503 182.069 38.4503C176.78 38.4503 172.478 34.1321 172.478 28.8237C172.478 23.5154 176.78 19.1971 182.069 19.1971C184.123 19.1971 186.028 19.8512 187.59 20.9599C187.731 19.9636 188.582 19.1971 189.613 19.1971ZM182.069 34.3431C185.101 34.3431 187.568 31.8671 187.568 28.8237C187.568 25.7803 185.101 23.3044 182.069 23.3044C179.037 23.3044 176.57 25.7803 176.57 28.8237C176.57 31.8671 179.037 34.3431 182.069 34.3431ZM206.952 32.7264C207.751 31.9244 209.046 31.9242 209.845 32.7265C210.645 33.5284 210.645 34.8287 209.845 35.6307C208.034 37.4489 205.626 38.4501 203.064 38.4501C197.775 38.4501 193.473 34.1319 193.473 28.8235C193.473 23.5152 197.775 19.197 203.064 19.197C205.626 19.197 208.034 20.1982 209.845 22.0167C210.644 22.8186 210.644 24.1189 209.845 24.9209C209.046 25.7229 207.751 25.7229 206.952 24.9209C205.913 23.8784 204.532 23.3044 203.064 23.3044C200.032 23.3044 197.565 25.7803 197.565 28.8237C197.565 31.8671 200.032 34.3431 203.064 34.3431C204.532 34.3431 205.913 33.7689 206.952 32.7264ZM224.726 28.849L230.799 34.9444C231.598 35.7463 231.598 37.0466 230.799 37.8486C230.399 38.2496 229.876 38.4501 229.352 38.4501C228.828 38.4501 228.305 38.2496 227.905 37.8486L221.833 31.7536L215.761 37.8486C215.369 38.2414 214.846 38.4501 214.314 38.4501C214.05 38.4501 213.784 38.399 213.531 38.2938C212.767 37.976 212.268 37.2271 212.268 36.3964V14.3209C212.268 13.1868 213.184 12.2673 214.314 12.2673C215.444 12.2673 216.36 13.1868 216.36 14.3209V31.4391L227.905 19.8505C228.704 19.0486 230 19.0486 230.799 19.8505C231.598 20.6525 231.598 21.9528 230.799 22.7548L224.726 28.849ZM245.06 26.7701C248.268 26.7701 250.879 29.3901 250.879 32.6104C250.879 35.8307 248.268 38.4507 245.06 38.4507H237.515C236.385 38.4507 235.469 37.5312 235.469 36.3971C235.469 35.263 236.386 34.3434 237.515 34.3434H245.06C246.012 34.3434 246.786 33.5661 246.786 32.6107C246.786 31.6552 246.012 30.8779 245.06 30.8779H237.515C234.307 30.8779 231.697 28.2579 231.697 25.0376C231.697 21.8173 234.307 19.1973 237.515 19.1973H245.06C246.19 19.1973 247.106 20.1169 247.106 21.2509C247.106 22.385 246.19 23.3046 245.06 23.3046H237.515C236.564 23.3046 235.789 24.0819 235.789 25.0373C235.789 25.9928 236.564 26.7701 237.515 26.7701H245.06ZM261.909 19.1971C267.198 19.1971 271.5 23.5154 271.5 28.8237C271.5 34.1321 267.198 38.4503 261.909 38.4503C256.621 38.4503 252.319 34.1321 252.319 28.8237C252.319 23.5154 256.621 19.1971 261.909 19.1971ZM261.909 34.3431C264.941 34.3431 267.408 31.8671 267.408 28.8237C267.408 25.7803 264.941 23.3044 261.909 23.3044C258.877 23.3044 256.411 25.7803 256.411 28.8237C256.411 31.8671 258.877 34.3431 261.909 34.3431ZM283.057 34.3431C284.187 34.3431 285.104 35.2626 285.104 36.3968C285.104 37.5309 284.187 38.4504 283.058 38.4504C277.685 38.4504 273.313 34.0626 273.313 28.6695V14.3194C273.313 13.1852 274.229 12.2658 275.359 12.2658C276.489 12.2658 277.405 13.1853 277.405 14.3194V28.6695C277.405 31.7978 279.941 34.3431 283.057 34.3431ZM302.201 19.1971C303.33 19.1971 304.246 20.1167 304.246 21.2508V28.8237C304.246 34.1321 299.944 38.4503 294.656 38.4503C289.367 38.4503 285.065 34.1321 285.065 28.8237V21.2508C285.065 20.1166 285.981 19.1971 287.111 19.1971C288.241 19.1971 289.157 20.1167 289.157 21.2508V28.8237C289.157 31.867 291.624 34.3431 294.656 34.3431C297.688 34.3431 300.155 31.8671 300.155 28.8237V21.2508C300.155 20.1166 301.071 19.1971 302.201 19.1971ZM315.804 34.3431C316.934 34.3431 317.85 35.2626 317.85 36.3968C317.85 37.5309 316.934 38.4504 315.804 38.4504C310.431 38.4504 306.06 34.0626 306.06 28.6695V14.3194C306.06 13.1852 306.976 12.2658 308.106 12.2658C309.235 12.2658 310.152 13.1853 310.152 14.3194V19.2026H315.804C316.934 19.2026 317.85 20.1221 317.85 21.2562C317.85 22.3903 316.933 23.3098 315.804 23.3098H310.152V28.6694C310.152 31.7977 312.687 34.3431 315.804 34.3431ZM321.721 19.1971C322.851 19.1971 323.767 20.1167 323.767 21.2508V36.3967C323.767 37.5309 322.851 38.4503 321.721 38.4503C320.591 38.4503 319.675 37.5308 319.675 36.3967V21.2508C319.675 20.1166 320.591 19.1971 321.721 19.1971ZM319.831 15.1049C319.78 14.9816 319.741 14.8507 319.716 14.7198C319.688 14.5888 319.675 14.4528 319.675 14.3193C319.675 14.1858 319.688 14.0497 319.716 13.9188C319.741 13.7879 319.78 13.657 319.831 13.5337C319.882 13.4105 319.946 13.2899 320.02 13.1795C320.094 13.0665 320.179 12.9613 320.273 12.8663C320.368 12.7713 320.473 12.6866 320.585 12.6122C320.695 12.5377 320.816 12.4735 320.938 12.4222C321.061 12.3709 321.192 12.3324 321.322 12.3067C321.987 12.1706 322.693 12.3914 323.169 12.8663C323.261 12.9613 323.348 13.0666 323.422 13.1795C323.496 13.2899 323.56 13.4106 323.611 13.5338C323.662 13.657 323.7 13.7879 323.726 13.9188C323.754 14.0498 323.767 14.1858 323.767 14.3193C323.767 14.4528 323.754 14.5889 323.726 14.7198C323.7 14.8507 323.662 14.9816 323.611 15.1049C323.56 15.2281 323.496 15.3487 323.422 15.4591C323.348 15.5721 323.261 15.6773 323.169 15.7723C323.074 15.8673 322.969 15.952 322.857 16.0264C322.747 16.1009 322.626 16.1651 322.504 16.2164C322.381 16.2677 322.25 16.3062 322.12 16.3319C321.99 16.3601 321.854 16.373 321.721 16.373C321.588 16.373 321.452 16.3601 321.322 16.3319C321.192 16.3062 321.061 16.2677 320.938 16.2164C320.816 16.1651 320.695 16.1009 320.585 16.0264C320.473 15.952 320.368 15.8673 320.273 15.7723C320.179 15.6773 320.094 15.5721 320.02 15.4591C319.946 15.3487 319.882 15.2281 319.831 15.1049ZM335.204 19.1971C340.493 19.1971 344.795 23.5154 344.795 28.8237C344.795 34.1321 340.493 38.4503 335.204 38.4503C329.916 38.4503 325.613 34.1321 325.613 28.8237C325.613 23.5154 329.916 19.1971 335.204 19.1971ZM335.204 34.3431C338.236 34.3431 340.703 31.8671 340.703 28.8237C340.703 25.7803 338.236 23.3044 335.204 23.3044C332.172 23.3044 329.705 25.7803 329.705 28.8237C329.705 31.8671 332.172 34.3431 335.204 34.3431ZM354.043 19.1971C358.143 19.1971 361.478 22.5452 361.478 26.6601V36.3971C361.478 37.5312 360.562 38.4507 359.432 38.4507C358.302 38.4507 357.386 37.5312 357.386 36.3971V26.6601C357.386 24.81 355.886 23.3047 354.043 23.3047C352.199 23.3047 350.7 24.8097 350.7 26.6601V36.3971C350.7 37.5312 349.784 38.4507 348.654 38.4507C347.524 38.4507 346.608 37.5312 346.608 36.3971V21.2511C346.608 20.117 347.524 19.1975 348.654 19.1975C349.386 19.1975 350.027 19.5849 350.388 20.1653C351.468 19.5505 352.715 19.1971 354.043 19.1971Z" fill="white"/>
</g>
<defs>
<clipPath id="clip0_24_56">
<rect width="361" height="56" fill="white" transform="translate(0.477661 0.54277)"/>
</clipPath>
</defs>
</svg>
