<svg width="32" height="29" viewBox="0 0 32 29" fill="none" xmlns="http://www.w3.org/2000/svg">
<path d="M28.0494 0.882736H3.95062C1.76875 0.882736 0 2.65812 0 4.84816V24.2787C0 26.4688 1.76875 28.2442 3.95062 28.2442H28.0494C30.2312 28.2442 32 26.4688 32 24.2787V4.84816C32 2.65812 30.2312 0.882736 28.0494 0.882736Z" fill="black"/>
<path d="M20.4206 7.97246C20.488 7.59759 25.2944 9.96974 25.0918 10.1798C24.0793 11.666 23.2114 13.344 22.4465 15.1138C21.6811 16.8847 21.0132 18.7457 20.366 20.6299C20.2183 21.038 18.6767 20.7521 18.6461 20.3006C18.6463 20.2949 18.6467 20.2892 18.6469 20.2836C18.6243 20.2622 18.6042 20.2386 18.5906 20.2093C17.9726 18.5533 17.3665 16.9017 16.6999 15.2984C16.4959 14.8095 16.2853 14.3247 16.0681 13.8464C15.823 14.3705 15.5808 14.8983 15.3426 15.4308L13.2799 20.1183C13.2801 20.1748 13.2813 20.2315 13.2813 20.288C13.2752 20.7208 11.7217 20.933 11.5487 20.5423C10.9956 18.7228 10.3392 16.9473 9.58833 15.2385C8.83614 13.5317 7.98551 11.8881 7.0291 10.3808C6.83232 10.1637 11.7224 7.97146 11.7699 8.3285C12.3232 10.3424 12.6854 12.344 12.9268 14.3372C12.993 14.8931 13.049 15.4483 13.0965 16.0027L13.3773 14.7659C13.5816 13.89 13.7936 13.0121 14.028 12.13C14.2637 11.2473 14.5172 10.3622 14.8377 9.45818C14.8714 9.32637 15.3984 9.4971 15.9877 9.75543C16.6104 9.45956 17.1923 9.24816 17.2299 9.38563C17.8976 11.1634 18.3217 12.931 18.6833 14.6891C18.768 15.1072 18.8479 15.5249 18.925 15.942C18.9768 15.3693 19.0361 14.7945 19.107 14.2169C19.3606 12.1629 19.7517 10.0708 20.4206 7.97246Z" fill="white"/>
</svg>
