<svg width="361" height="57" viewBox="0 0 361 57" fill="none" xmlns="http://www.w3.org/2000/svg">
<g clip-path="url(#clip0_24_55)">
<path d="M57.408 0.232086H8.08564C3.62006 0.232086 0 3.86572 0 8.34803V48.1161C0 52.5984 3.62006 56.2321 8.08564 56.2321H57.408C61.8736 56.2321 65.4937 52.5984 65.4937 48.1161V8.34803C65.4937 3.86572 61.8736 0.232086 57.408 0.232086Z" fill="#FEF4E8"/>
<path d="M41.7944 14.7425C41.9323 13.9752 51.7696 18.8303 51.3549 19.2602C49.2826 22.3021 47.5063 25.7363 45.9408 29.3585C44.3742 32.983 43.0073 36.7917 41.6827 40.6482C41.3804 41.4834 38.2252 40.8983 38.1626 39.9742C38.163 39.9626 38.1638 39.9509 38.1642 39.9393C38.118 39.8957 38.0769 39.8473 38.049 39.7873C36.7842 36.3981 35.5437 33.0177 34.1794 29.7362C33.7619 28.7357 33.3309 27.7435 32.8863 26.7645C32.3846 27.8371 31.889 28.9173 31.4013 30.0072L27.1797 39.601C27.1802 39.7167 27.1825 39.8328 27.1825 39.9485C27.1702 40.8342 23.9906 41.2684 23.6366 40.4688C22.5045 36.745 21.1612 33.1111 19.6243 29.6136C18.0848 26.1204 16.3438 22.7566 14.3863 19.6715C13.9836 19.2273 23.992 14.7404 24.0893 15.4712C25.2217 19.593 25.963 23.6897 26.457 27.769C26.5926 28.9069 26.7071 30.0432 26.8044 31.1779L27.379 28.6464C27.7973 26.8537 28.2311 25.0571 28.7108 23.2517C29.1933 21.445 29.712 19.6335 30.368 17.7833C30.437 17.5135 31.5155 17.8629 32.7217 18.3916C33.9961 17.7861 35.1871 17.3534 35.2641 17.6348C36.6306 21.2733 37.4986 24.8911 38.2387 28.4893C38.4121 29.3451 38.5756 30.1999 38.7335 31.0536C38.8395 29.8813 38.9608 28.7051 39.1059 27.5228C39.625 23.319 40.4255 19.0372 41.7944 14.7425Z" fill="#970747"/>
<path d="M108.069 19.1034C109.08 19.6104 109.489 20.8441 108.984 21.8587L101.439 37.0046C101.092 37.7003 100.384 38.1398 99.609 38.1398C98.8342 38.1398 98.1254 37.7003 97.7791 37.0046L96.3759 34.1872L94.9726 37.0046C94.626 37.7003 93.9175 38.1398 93.1427 38.1398C92.3678 38.1398 91.6593 37.7003 91.3128 37.0046L83.7681 21.8587C83.2627 20.8442 83.6724 19.6106 84.6829 19.1034C85.6936 18.5962 86.9226 19.0072 87.4279 20.0219L93.1428 31.4945L98.8577 20.0219C99.3628 19.0072 100.592 18.5966 101.603 19.1034C102.613 19.6106 103.023 20.8441 102.517 21.8587L98.6637 29.5951L99.6094 31.4941L105.324 20.0215C105.829 19.0067 107.058 18.5966 108.069 19.1034ZM118.757 18.8865C124.046 18.8865 128.348 23.2047 128.348 28.513C128.348 29.6472 127.432 30.5667 126.302 30.5667H113.654C114.467 32.596 116.448 34.0323 118.758 34.0323C120.226 34.0323 121.607 33.4583 122.646 32.4158C123.445 31.6138 124.74 31.614 125.539 32.4158C126.338 33.218 126.338 34.5182 125.539 35.3202C123.728 37.1384 121.319 38.1396 118.757 38.1396C113.469 38.1396 109.167 33.8214 109.167 28.513C109.167 23.2047 113.469 18.8865 118.757 18.8865ZM113.653 26.4594H123.862C123.048 24.4301 121.067 22.9938 118.757 22.9938C116.448 22.9938 114.466 24.4301 113.653 26.4594ZM139.726 18.9379C145.001 18.9379 149.292 23.2449 149.292 28.5392C149.292 33.8336 145.001 38.1406 139.726 38.1406C137.681 38.1406 135.785 37.4908 134.229 36.389C134.083 37.3796 133.235 38.1406 132.207 38.1406C131.077 38.1406 130.161 37.221 130.161 36.0869V14.0096C130.161 12.8754 131.077 11.956 132.207 11.956C133.337 11.956 134.253 12.8755 134.253 14.0096V20.6722C135.805 19.5812 137.692 18.9379 139.726 18.9379ZM139.726 34.0324C142.744 34.0324 145.199 31.5679 145.199 28.5389C145.199 25.5098 142.744 23.0453 139.726 23.0453C136.709 23.0453 134.253 25.5098 134.253 28.5389C134.253 31.5679 136.709 34.0324 139.726 34.0324ZM160.646 18.8865C165.921 18.8865 170.211 23.1934 170.211 28.4878C170.211 33.7821 165.92 38.0891 160.645 38.0891C158.611 38.0891 156.724 37.4461 155.172 36.355V43.018C155.172 44.1522 154.256 45.0716 153.126 45.0716C151.996 45.0716 151.08 44.1521 151.08 43.018V20.9406C151.08 19.8065 151.996 18.887 153.126 18.887C154.154 18.887 155.002 19.6479 155.148 20.6386C156.704 19.5368 158.601 18.8865 160.646 18.8865ZM160.646 33.9808C163.664 33.9808 166.119 31.5163 166.119 28.4872C166.119 25.4581 163.664 22.9937 160.646 22.9937C157.628 22.9937 155.173 25.4581 155.173 28.4872C155.173 31.5163 157.628 33.9808 160.646 33.9808ZM189.136 18.8865C190.266 18.8865 191.182 19.806 191.182 20.9401V36.086C191.182 37.2202 190.266 38.1396 189.136 38.1396C188.104 38.1396 187.254 37.3731 187.113 36.3768C185.55 37.4856 183.646 38.1396 181.591 38.1396C176.303 38.1396 172 33.8214 172 28.513C172 23.2047 176.303 18.8865 181.591 18.8865C183.646 18.8865 185.55 19.5405 187.113 20.6492C187.254 19.6529 188.104 18.8865 189.136 18.8865ZM181.591 34.0324C184.623 34.0324 187.09 31.5564 187.09 28.513C187.09 25.4696 184.623 22.9937 181.591 22.9937C178.559 22.9937 176.092 25.4696 176.092 28.513C176.092 31.5564 178.559 34.0324 181.591 34.0324ZM206.474 32.4157C207.273 31.6137 208.569 31.6136 209.368 32.4158C210.167 33.2177 210.167 34.518 209.368 35.32C207.556 37.1383 205.148 38.1395 202.586 38.1395C197.297 38.1395 192.995 33.8212 192.995 28.5129C192.995 23.2045 197.297 18.8863 202.586 18.8863C205.148 18.8863 207.556 19.8875 209.367 21.706C210.167 22.508 210.167 23.8082 209.367 24.6102C208.568 25.4122 207.273 25.4122 206.474 24.6102C205.436 23.5677 204.055 22.9937 202.586 22.9937C199.554 22.9937 197.087 25.4697 197.087 28.5131C197.087 31.5565 199.554 34.0324 202.586 34.0324C204.055 34.0324 205.436 33.4582 206.474 32.4157ZM224.249 28.5383L230.321 34.6337C231.121 35.4356 231.121 36.7359 230.321 37.5379C229.922 37.9389 229.398 38.1394 228.875 38.1394C228.351 38.1394 227.827 37.9389 227.428 37.5379L221.355 31.4429L215.283 37.5379C214.892 37.9307 214.368 38.1394 213.836 38.1394C213.572 38.1394 213.307 38.0883 213.053 37.9831C212.289 37.6653 211.79 36.9164 211.79 36.0857V14.0102C211.79 12.8761 212.707 11.9566 213.836 11.9566C214.966 11.9566 215.882 12.8761 215.882 14.0102V31.1284L227.428 19.5399C228.227 18.7379 229.522 18.7379 230.321 19.5399C231.12 20.3418 231.12 21.6421 230.321 22.4441L224.249 28.5383ZM244.582 26.4594C247.791 26.4594 250.401 29.0794 250.401 32.2997C250.401 35.52 247.791 38.14 244.582 38.14H237.038C235.908 38.14 234.992 37.2205 234.992 36.0864C234.992 34.9523 235.908 34.0328 237.038 34.0328H244.582C245.534 34.0328 246.309 33.2554 246.309 32.3C246.309 31.3445 245.534 30.5672 244.582 30.5672H237.038C233.83 30.5672 231.219 27.9473 231.219 24.7269C231.219 21.5066 233.829 18.8866 237.038 18.8866H244.582C245.712 18.8866 246.628 19.8062 246.628 20.9403C246.628 22.0744 245.712 22.9939 244.582 22.9939H237.038C236.086 22.9939 235.311 23.7712 235.311 24.7267C235.311 25.6821 236.086 26.4594 237.038 26.4594H244.582ZM261.432 18.8865C266.72 18.8865 271.022 23.2047 271.022 28.513C271.022 33.8214 266.72 38.1396 261.432 38.1396C256.143 38.1396 251.841 33.8214 251.841 28.513C251.841 23.2047 256.143 18.8865 261.432 18.8865ZM261.432 34.0324C264.464 34.0324 266.93 31.5564 266.93 28.513C266.93 25.4696 264.464 22.9937 261.432 22.9937C258.4 22.9937 255.933 25.4696 255.933 28.513C255.933 31.5564 258.4 34.0324 261.432 34.0324ZM282.58 34.0324C283.71 34.0324 284.626 34.9519 284.626 36.0861C284.626 37.2202 283.71 38.1397 282.58 38.1397C277.207 38.1397 272.836 33.7519 272.836 28.3588V14.0087C272.836 12.8746 273.752 11.9551 274.881 11.9551C276.011 11.9551 276.927 12.8746 276.927 14.0087V28.3588C276.927 31.4871 279.463 34.0324 282.58 34.0324ZM301.723 18.8865C302.853 18.8865 303.769 19.806 303.769 20.9401V28.513C303.769 33.8214 299.467 38.1396 294.178 38.1396C288.89 38.1396 284.588 33.8214 284.588 28.513V20.9401C284.588 19.8059 285.504 18.8865 286.633 18.8865C287.763 18.8865 288.679 19.806 288.679 20.9401V28.513C288.679 31.5563 291.146 34.0324 294.178 34.0324C297.21 34.0324 299.677 31.5564 299.677 28.513V20.9401C299.677 19.8059 300.593 18.8865 301.723 18.8865ZM315.326 34.0324C316.456 34.0324 317.372 34.9519 317.372 36.0861C317.372 37.2202 316.456 38.1397 315.326 38.1397C309.954 38.1397 305.582 33.7519 305.582 28.3588V14.0087C305.582 12.8746 306.498 11.9551 307.628 11.9551C308.758 11.9551 309.674 12.8746 309.674 14.0087V18.8919H315.326C316.456 18.8919 317.372 19.8114 317.372 20.9455C317.372 22.0796 316.456 22.9991 315.326 22.9991H309.674V28.3587C309.674 31.487 312.21 34.0324 315.326 34.0324ZM321.243 18.8865C322.373 18.8865 323.289 19.806 323.289 20.9401V36.086C323.289 37.2202 322.373 38.1396 321.243 38.1396C320.113 38.1396 319.197 37.2201 319.197 36.086V20.9401C319.197 19.8059 320.113 18.8865 321.243 18.8865ZM319.353 14.7942C319.302 14.671 319.264 14.54 319.238 14.4091C319.21 14.2782 319.197 14.1421 319.197 14.0086C319.197 13.8751 319.21 13.739 319.238 13.6081C319.264 13.4772 319.302 13.3463 319.353 13.2231C319.404 13.0998 319.468 12.9792 319.543 12.8688C319.617 12.7558 319.701 12.6506 319.796 12.5556C319.89 12.4606 319.995 12.3759 320.108 12.3015C320.218 12.227 320.338 12.1629 320.461 12.1115C320.583 12.0602 320.714 12.0217 320.844 11.996C321.509 11.8599 322.215 12.0807 322.691 12.5557C322.783 12.6506 322.87 12.7559 322.944 12.8688C323.018 12.9792 323.082 13.0999 323.133 13.2231C323.184 13.3463 323.223 13.4772 323.248 13.6082C323.277 13.7391 323.289 13.8752 323.289 14.0086C323.289 14.1421 323.277 14.2782 323.248 14.4091C323.223 14.54 323.184 14.671 323.133 14.7942C323.082 14.9174 323.018 15.038 322.944 15.1484C322.87 15.2614 322.783 15.3666 322.691 15.4616C322.596 15.5566 322.491 15.6413 322.379 15.7158C322.269 15.7902 322.149 15.8544 322.026 15.9057C321.903 15.957 321.773 15.9955 321.642 16.0212C321.512 16.0495 321.376 16.0623 321.243 16.0623C321.11 16.0623 320.975 16.0495 320.844 16.0212C320.714 15.9955 320.583 15.957 320.461 15.9057C320.338 15.8544 320.218 15.7902 320.108 15.7158C319.995 15.6413 319.89 15.5566 319.796 15.4616C319.701 15.3666 319.617 15.2614 319.543 15.1484C319.468 15.038 319.404 14.9174 319.353 14.7942ZM334.726 18.8865C340.015 18.8865 344.317 23.2047 344.317 28.513C344.317 33.8214 340.015 38.1396 334.726 38.1396C329.438 38.1396 325.136 33.8214 325.136 28.513C325.136 23.2047 329.438 18.8865 334.726 18.8865ZM334.726 34.0324C337.758 34.0324 340.225 31.5564 340.225 28.513C340.225 25.4696 337.759 22.9937 334.726 22.9937C331.694 22.9937 329.228 25.4696 329.228 28.513C329.228 31.5564 331.694 34.0324 334.726 34.0324ZM353.565 18.8865C357.665 18.8865 361 22.2345 361 26.3494V36.0864C361 37.2205 360.084 38.14 358.954 38.14C357.824 38.14 356.908 37.2205 356.908 36.0864V26.3494C356.908 24.4993 355.409 22.994 353.565 22.994C351.722 22.994 350.222 24.499 350.222 26.3494V36.0864C350.222 37.2205 349.306 38.14 348.176 38.14C347.046 38.14 346.13 37.2205 346.13 36.0864V20.9404C346.13 19.8063 347.046 18.8868 348.176 18.8868C348.909 18.8868 349.549 19.2742 349.911 19.8546C350.991 19.2398 352.237 18.8865 353.565 18.8865Z" fill="white"/>
</g>
<defs>
<clipPath id="clip0_24_55">
<rect width="361" height="56" fill="white" transform="translate(0 0.232086)"/>
</clipPath>
</defs>
</svg>
