<svg width="361" height="57" viewBox="0 0 361 57" fill="none" xmlns="http://www.w3.org/2000/svg">
<g clip-path="url(#clip0_24_57)">
<path d="M57.408 0.421143H8.08564C3.62006 0.421143 0 4.05477 0 8.53708V48.3052C0 52.7875 3.62006 56.4211 8.08564 56.4211H57.408C61.8736 56.4211 65.4937 52.7875 65.4937 48.3052V8.53708C65.4937 4.05477 61.8736 0.421143 57.408 0.421143Z" fill="black"/>
<path d="M41.7944 14.9315C41.9323 14.1643 51.7696 19.0193 51.3549 19.4493C49.2826 22.4911 47.5063 25.9254 45.9408 29.5475C44.3742 33.172 43.0073 36.9808 41.6827 40.8372C41.3804 41.6725 38.2252 41.0874 38.1626 40.1632C38.163 40.1516 38.1638 40.14 38.1642 40.1284C38.118 40.0847 38.0769 40.0363 38.049 39.9763C36.7842 36.5871 35.5437 33.2068 34.1794 29.9253C33.7619 28.9247 33.3309 27.9325 32.8863 26.9536C32.3846 28.0262 31.889 29.1064 31.4013 30.1963L27.1797 39.7901C27.1802 39.9058 27.1825 40.0219 27.1825 40.1375C27.1702 41.0232 23.9906 41.4575 23.6366 40.6578C22.5045 36.934 21.1612 33.3002 19.6243 29.8027C18.0848 26.3094 16.3438 22.9456 14.3863 19.8606C13.9836 19.4163 23.992 14.9295 24.0893 15.6602C25.2217 19.782 25.963 23.8787 26.457 27.9581C26.5926 29.0959 26.7071 30.2322 26.8044 31.3669L27.379 28.8354C27.7973 27.0428 28.2311 25.2461 28.7108 23.4407C29.1933 21.634 29.712 19.8226 30.368 17.9723C30.437 17.7026 31.5155 18.052 32.7217 18.5807C33.9961 17.9751 35.1871 17.5425 35.2641 17.8238C36.6306 21.4624 37.4986 25.0801 38.2387 28.6784C38.4121 29.5341 38.5756 30.389 38.7335 31.2427C38.8395 30.0704 38.9608 28.8941 39.1059 27.7118C39.625 23.508 40.4255 19.2263 41.7944 14.9315Z" fill="white"/>
<path d="M108.069 19.2925C109.08 19.7995 109.489 21.0332 108.984 22.0478L101.439 37.1937C101.092 37.8894 100.384 38.3289 99.609 38.3289C98.8342 38.3289 98.1254 37.8894 97.7791 37.1937L96.3759 34.3763L94.9726 37.1937C94.626 37.8894 93.9175 38.3289 93.1427 38.3289C92.3678 38.3289 91.6593 37.8894 91.3128 37.1937L83.7681 22.0478C83.2627 21.0333 83.6724 19.7997 84.6829 19.2925C85.6936 18.7852 86.9226 19.1962 87.4279 20.211L93.1428 31.6836L98.8577 20.211C99.3628 19.1962 100.592 18.7857 101.603 19.2925C102.613 19.7997 103.023 21.0332 102.517 22.0478L98.6637 29.7842L99.6094 31.6831L105.324 20.2105C105.829 19.1958 107.058 18.7857 108.069 19.2925ZM118.757 19.0755C124.046 19.0755 128.348 23.3937 128.348 28.7021C128.348 29.8363 127.432 30.7557 126.302 30.7557H113.654C114.467 32.785 116.448 34.2213 118.758 34.2213C120.226 34.2213 121.607 33.6473 122.646 32.6048C123.445 31.8029 124.74 31.8031 125.539 32.6048C126.338 33.407 126.338 34.7073 125.539 35.5093C123.728 37.3275 121.319 38.3287 118.757 38.3287C113.469 38.3287 109.167 34.0105 109.167 28.7021C109.167 23.3937 113.469 19.0755 118.757 19.0755ZM113.653 26.6485H123.862C123.048 24.6192 121.067 23.1829 118.757 23.1829C116.448 23.1829 114.466 24.6192 113.653 26.6485ZM139.726 19.127C145.001 19.127 149.292 23.4339 149.292 28.7283C149.292 34.0226 145.001 38.3296 139.726 38.3296C137.681 38.3296 135.785 37.6799 134.229 36.5781C134.083 37.5687 133.235 38.3296 132.207 38.3296C131.077 38.3296 130.161 37.4101 130.161 36.276V14.1986C130.161 13.0645 131.077 12.145 132.207 12.145C133.337 12.145 134.253 13.0645 134.253 14.1986V20.8613C135.805 19.7703 137.692 19.127 139.726 19.127ZM139.726 34.2214C142.744 34.2214 145.199 31.757 145.199 28.7279C145.199 25.6988 142.744 23.2344 139.726 23.2344C136.709 23.2344 134.253 25.6988 134.253 28.7279C134.253 31.757 136.709 34.2214 139.726 34.2214ZM160.646 19.0755C165.921 19.0755 170.211 23.3825 170.211 28.6769C170.211 33.9712 165.92 38.2782 160.645 38.2782C158.611 38.2782 156.724 37.6351 155.172 36.5441V43.2071C155.172 44.3412 154.256 45.2607 153.126 45.2607C151.996 45.2607 151.08 44.3412 151.08 43.2071V21.1297C151.08 19.9955 151.996 19.0761 153.126 19.0761C154.154 19.0761 155.002 19.837 155.148 20.8276C156.704 19.7258 158.601 19.0755 160.646 19.0755ZM160.646 34.1698C163.664 34.1698 166.119 31.7054 166.119 28.6763C166.119 25.6472 163.664 23.1828 160.646 23.1828C157.628 23.1828 155.173 25.6472 155.173 28.6763C155.173 31.7054 157.628 34.1698 160.646 34.1698ZM189.136 19.0755C190.266 19.0755 191.182 19.995 191.182 21.1291V36.2751C191.182 37.4092 190.266 38.3287 189.136 38.3287C188.104 38.3287 187.254 37.5622 187.113 36.5659C185.55 37.6746 183.646 38.3287 181.591 38.3287C176.303 38.3287 172 34.0105 172 28.7021C172 23.3937 176.303 19.0755 181.591 19.0755C183.646 19.0755 185.55 19.7296 187.113 20.8383C187.254 19.842 188.104 19.0755 189.136 19.0755ZM181.591 34.2214C184.623 34.2214 187.09 31.7455 187.09 28.7021C187.09 25.6587 184.623 23.1828 181.591 23.1828C178.559 23.1828 176.092 25.6587 176.092 28.7021C176.092 31.7455 178.559 34.2214 181.591 34.2214ZM206.474 32.6047C207.273 31.8028 208.569 31.8026 209.368 32.6048C210.167 33.4068 210.167 34.7071 209.368 35.5091C207.556 37.3273 205.148 38.3285 202.586 38.3285C197.297 38.3285 192.995 34.0103 192.995 28.7019C192.995 23.3936 197.297 19.0753 202.586 19.0753C205.148 19.0753 207.556 20.0765 209.367 21.8951C210.167 22.697 210.167 23.9973 209.367 24.7993C208.568 25.6013 207.273 25.6013 206.474 24.7993C205.436 23.7568 204.055 23.1828 202.586 23.1828C199.554 23.1828 197.087 25.6587 197.087 28.7021C197.087 31.7455 199.554 34.2215 202.586 34.2215C204.055 34.2215 205.436 33.6473 206.474 32.6047ZM224.249 28.7274L230.321 34.8228C231.121 35.6247 231.121 36.925 230.321 37.727C229.922 38.128 229.398 38.3285 228.875 38.3285C228.351 38.3285 227.827 38.128 227.428 37.727L221.355 31.632L215.283 37.727C214.892 38.1198 214.368 38.3285 213.836 38.3285C213.572 38.3285 213.307 38.2774 213.053 38.1721C212.289 37.8543 211.79 37.1055 211.79 36.2748V14.1993C211.79 13.0651 212.707 12.1457 213.836 12.1457C214.966 12.1457 215.882 13.0652 215.882 14.1993V31.3175L227.428 19.7289C228.227 18.927 229.522 18.927 230.321 19.7289C231.12 20.5309 231.12 21.8312 230.321 22.6332L224.249 28.7274ZM244.582 26.6485C247.791 26.6485 250.401 29.2684 250.401 32.4888C250.401 35.7091 247.791 38.3291 244.582 38.3291H237.038C235.908 38.3291 234.992 37.4095 234.992 36.2754C234.992 35.1413 235.908 34.2218 237.038 34.2218H244.582C245.534 34.2218 246.309 33.4445 246.309 32.4891C246.309 31.5336 245.534 30.7563 244.582 30.7563H237.038C233.83 30.7563 231.219 28.1363 231.219 24.916C231.219 21.6957 233.829 19.0757 237.038 19.0757H244.582C245.712 19.0757 246.628 19.9952 246.628 21.1293C246.628 22.2634 245.712 23.1829 244.582 23.1829H237.038C236.086 23.1829 235.311 23.9603 235.311 24.9157C235.311 25.8712 236.086 26.6485 237.038 26.6485H244.582ZM261.432 19.0755C266.72 19.0755 271.022 23.3937 271.022 28.7021C271.022 34.0105 266.72 38.3287 261.432 38.3287C256.143 38.3287 251.841 34.0105 251.841 28.7021C251.841 23.3937 256.143 19.0755 261.432 19.0755ZM261.432 34.2214C264.464 34.2214 266.93 31.7455 266.93 28.7021C266.93 25.6587 264.464 23.1828 261.432 23.1828C258.4 23.1828 255.933 25.6587 255.933 28.7021C255.933 31.7455 258.4 34.2214 261.432 34.2214ZM282.58 34.2214C283.71 34.2214 284.626 35.141 284.626 36.2752C284.626 37.4093 283.71 38.3288 282.58 38.3288C277.207 38.3288 272.836 33.941 272.836 28.5479V14.1978C272.836 13.0636 273.752 12.1442 274.881 12.1442C276.011 12.1442 276.927 13.0637 276.927 14.1978V28.5479C276.927 31.6762 279.463 34.2214 282.58 34.2214ZM301.723 19.0755C302.853 19.0755 303.769 19.995 303.769 21.1291V28.7021C303.769 34.0105 299.467 38.3287 294.178 38.3287C288.89 38.3287 284.588 34.0105 284.588 28.7021V21.1291C284.588 19.995 285.504 19.0755 286.633 19.0755C287.763 19.0755 288.679 19.995 288.679 21.1291V28.7021C288.679 31.7454 291.146 34.2214 294.178 34.2214C297.21 34.2214 299.677 31.7455 299.677 28.7021V21.1291C299.677 19.995 300.593 19.0755 301.723 19.0755ZM315.326 34.2214C316.456 34.2214 317.372 35.141 317.372 36.2752C317.372 37.4093 316.456 38.3288 315.326 38.3288C309.954 38.3288 305.582 33.941 305.582 28.5479V14.1978C305.582 13.0636 306.498 12.1442 307.628 12.1442C308.758 12.1442 309.674 13.0637 309.674 14.1978V19.0809H315.326C316.456 19.0809 317.372 20.0005 317.372 21.1346C317.372 22.2687 316.456 23.1882 315.326 23.1882H309.674V28.5478C309.674 31.6761 312.21 34.2214 315.326 34.2214ZM321.243 19.0755C322.373 19.0755 323.289 19.995 323.289 21.1291V36.2751C323.289 37.4092 322.373 38.3287 321.243 38.3287C320.113 38.3287 319.197 37.4092 319.197 36.2751V21.1291C319.197 19.995 320.113 19.0755 321.243 19.0755ZM319.353 14.9832C319.302 14.86 319.264 14.7291 319.238 14.5981C319.21 14.4672 319.197 14.3311 319.197 14.1977C319.197 14.0642 319.21 13.9281 319.238 13.7972C319.264 13.6663 319.302 13.5353 319.353 13.4121C319.404 13.2889 319.468 13.1683 319.543 13.0579C319.617 12.9449 319.701 12.8397 319.796 12.7447C319.89 12.6497 319.995 12.565 320.108 12.4905C320.218 12.4161 320.338 12.3519 320.461 12.3006C320.583 12.2493 320.714 12.2108 320.844 12.1851C321.509 12.049 322.215 12.2698 322.691 12.7447C322.783 12.8397 322.87 12.9449 322.944 13.0579C323.018 13.1683 323.082 13.2889 323.133 13.4122C323.184 13.5354 323.223 13.6663 323.248 13.7972C323.277 13.9281 323.289 14.0642 323.289 14.1977C323.289 14.3312 323.277 14.4673 323.248 14.5982C323.223 14.7291 323.184 14.86 323.133 14.9832C323.082 15.1065 323.018 15.2271 322.944 15.3375C322.87 15.4505 322.783 15.5557 322.691 15.6507C322.596 15.7457 322.491 15.8304 322.379 15.9048C322.269 15.9793 322.149 16.0434 322.026 16.0948C321.903 16.1461 321.773 16.1846 321.642 16.2103C321.512 16.2385 321.376 16.2513 321.243 16.2513C321.11 16.2513 320.975 16.2385 320.844 16.2103C320.714 16.1846 320.583 16.1461 320.461 16.0948C320.338 16.0434 320.218 15.9793 320.108 15.9048C319.995 15.8304 319.89 15.7457 319.796 15.6507C319.701 15.5557 319.617 15.4505 319.543 15.3375C319.468 15.2271 319.404 15.1065 319.353 14.9832ZM334.726 19.0755C340.015 19.0755 344.317 23.3937 344.317 28.7021C344.317 34.0105 340.015 38.3287 334.726 38.3287C329.438 38.3287 325.136 34.0105 325.136 28.7021C325.136 23.3937 329.438 19.0755 334.726 19.0755ZM334.726 34.2214C337.758 34.2214 340.225 31.7455 340.225 28.7021C340.225 25.6587 337.759 23.1828 334.726 23.1828C331.694 23.1828 329.228 25.6587 329.228 28.7021C329.228 31.7455 331.694 34.2214 334.726 34.2214ZM353.565 19.0755C357.665 19.0755 361 22.4236 361 26.5385V36.2754C361 37.4096 360.084 38.3291 358.954 38.3291C357.824 38.3291 356.908 37.4095 356.908 36.2754V26.5385C356.908 24.6884 355.409 23.183 353.565 23.183C351.722 23.183 350.222 24.6881 350.222 26.5385V36.2754C350.222 37.4096 349.306 38.3291 348.176 38.3291C347.046 38.3291 346.13 37.4095 346.13 36.2754V21.1295C346.13 19.9953 347.046 19.0759 348.176 19.0759C348.909 19.0759 349.549 19.4632 349.911 20.0437C350.991 19.4289 352.237 19.0755 353.565 19.0755Z" fill="black"/>
</g>
<defs>
<clipPath id="clip0_24_57">
<rect width="361" height="56" fill="white" transform="translate(0 0.421143)"/>
</clipPath>
</defs>
</svg>
