<svg width="361" height="57" viewBox="0 0 361 57" fill="none" xmlns="http://www.w3.org/2000/svg">
<g clip-path="url(#clip0_24_56)">
<path d="M57.408 0.326614H8.08564C3.62006 0.326614 0 3.96024 0 8.44256V48.2107C0 52.693 3.62006 56.3266 8.08564 56.3266H57.408C61.8736 56.3266 65.4937 52.693 65.4937 48.2107V8.44256C65.4937 3.96024 61.8736 0.326614 57.408 0.326614Z" fill="white"/>
<path d="M41.7944 14.837C41.9323 14.0698 51.7696 18.9248 51.3549 19.3548C49.2826 22.3966 47.5063 25.8308 45.9408 29.453C44.3742 33.0775 43.0073 36.8863 41.6827 40.7427C41.3804 41.578 38.2252 40.9929 38.1626 40.0687C38.163 40.0571 38.1638 40.0455 38.1642 40.0338C38.118 39.9902 38.0769 39.9418 38.049 39.8818C36.7842 36.4926 35.5437 33.1123 34.1794 29.8308C33.7619 28.8302 33.3309 27.838 32.8863 26.859C32.3846 27.9316 31.889 29.0119 31.4013 30.1017L27.1797 39.6956C27.1802 39.8112 27.1825 39.9273 27.1825 40.043C27.1702 40.9287 23.9906 41.363 23.6366 40.5633C22.5045 36.8395 21.1612 33.2056 19.6243 29.7081C18.0848 26.2149 16.3438 22.8511 14.3863 19.7661C13.9836 19.3218 23.992 14.835 24.0893 15.5657C25.2217 19.6875 25.963 23.7842 26.457 27.8636C26.5926 29.0014 26.7071 30.1377 26.8044 31.2724L27.379 28.7409C27.7973 26.9483 28.2311 25.1516 28.7108 23.3462C29.1933 21.5395 29.712 19.728 30.368 17.8778C30.437 17.608 31.5155 17.9574 32.7217 18.4862C33.9961 17.8806 35.1871 17.448 35.2641 17.7293C36.6306 21.3679 37.4986 24.9856 38.2387 28.5839C38.4121 29.4396 38.5756 30.2944 38.7335 31.1481C38.8395 29.9759 38.9608 28.7996 39.1059 27.6173C39.625 23.4135 40.4255 19.1317 41.7944 14.837Z" fill="black"/>
<path d="M108.069 19.1979C109.08 19.7049 109.489 20.9387 108.984 21.9532L101.439 37.0991C101.092 37.7948 100.384 38.2343 99.609 38.2343C98.8342 38.2343 98.1254 37.7948 97.7791 37.0991L96.3759 34.2818L94.9726 37.0991C94.626 37.7948 93.9175 38.2343 93.1427 38.2343C92.3678 38.2343 91.6593 37.7948 91.3128 37.0991L83.7681 21.9532C83.2627 20.9387 83.6724 19.7052 84.6829 19.1979C85.6936 18.6907 86.9226 19.1017 87.4279 20.1165L93.1428 31.5891L98.8577 20.1165C99.3628 19.1017 100.592 18.6912 101.603 19.1979C102.613 19.7052 103.023 20.9387 102.517 21.9532L98.6637 29.6896L99.6094 31.5886L105.324 20.116C105.829 19.1012 107.058 18.6912 108.069 19.1979ZM118.757 18.981C124.046 18.981 128.348 23.2992 128.348 28.6076C128.348 29.7417 127.432 30.6612 126.302 30.6612H113.654C114.467 32.6905 116.448 34.1268 118.758 34.1268C120.226 34.1268 121.607 33.5528 122.646 32.5103C123.445 31.7083 124.74 31.7086 125.539 32.5103C126.338 33.3125 126.338 34.6127 125.539 35.4147C123.728 37.233 121.319 38.2341 118.757 38.2341C113.469 38.2341 109.167 33.9159 109.167 28.6076C109.167 23.2992 113.469 18.981 118.757 18.981ZM113.653 26.5539H123.862C123.048 24.5246 121.067 23.0883 118.757 23.0883C116.448 23.0883 114.466 24.5246 113.653 26.5539ZM139.726 19.0324C145.001 19.0324 149.292 23.3394 149.292 28.6337C149.292 33.9281 145.001 38.2351 139.726 38.2351C137.681 38.2351 135.785 37.5854 134.229 36.4835C134.083 37.4741 133.235 38.2351 132.207 38.2351C131.077 38.2351 130.161 37.3156 130.161 36.1815V14.1041C130.161 12.9699 131.077 12.0505 132.207 12.0505C133.337 12.0505 134.253 12.97 134.253 14.1041V20.7668C135.805 19.6757 137.692 19.0324 139.726 19.0324ZM139.726 34.1269C142.744 34.1269 145.199 31.6625 145.199 28.6334C145.199 25.6043 142.744 23.1398 139.726 23.1398C136.709 23.1398 134.253 25.6043 134.253 28.6334C134.253 31.6625 136.709 34.1269 139.726 34.1269ZM160.646 18.981C165.921 18.981 170.211 23.288 170.211 28.5823C170.211 33.8767 165.92 38.1837 160.645 38.1837C158.611 38.1837 156.724 37.5406 155.172 36.4496V43.1125C155.172 44.2467 154.256 45.1662 153.126 45.1662C151.996 45.1662 151.08 44.2466 151.08 43.1125V21.0352C151.08 19.901 151.996 18.9815 153.126 18.9815C154.154 18.9815 155.002 19.7424 155.148 20.7331C156.704 19.6313 158.601 18.981 160.646 18.981ZM160.646 34.0753C163.664 34.0753 166.119 31.6108 166.119 28.5818C166.119 25.5527 163.664 23.0882 160.646 23.0882C157.628 23.0882 155.173 25.5527 155.173 28.5818C155.173 31.6108 157.628 34.0753 160.646 34.0753ZM189.136 18.981C190.266 18.981 191.182 19.9005 191.182 21.0346V36.1805C191.182 37.3147 190.266 38.2341 189.136 38.2341C188.104 38.2341 187.254 37.4676 187.113 36.4714C185.55 37.5801 183.646 38.2341 181.591 38.2341C176.303 38.2341 172 33.9159 172 28.6076C172 23.2992 176.303 18.981 181.591 18.981C183.646 18.981 185.55 19.6351 187.113 20.7438C187.254 19.7474 188.104 18.981 189.136 18.981ZM181.591 34.1269C184.623 34.1269 187.09 31.651 187.09 28.6076C187.09 25.5642 184.623 23.0882 181.591 23.0882C178.559 23.0882 176.092 25.5642 176.092 28.6076C176.092 31.651 178.559 34.1269 181.591 34.1269ZM206.474 32.5102C207.273 31.7082 208.569 31.7081 209.368 32.5103C210.167 33.3123 210.167 34.6126 209.368 35.4146C207.556 37.2328 205.148 38.234 202.586 38.234C197.297 38.234 192.995 33.9158 192.995 28.6074C192.995 23.299 197.297 18.9808 202.586 18.9808C205.148 18.9808 207.556 19.982 209.367 21.8005C210.167 22.6025 210.167 23.9028 209.367 24.7048C208.568 25.5067 207.273 25.5067 206.474 24.7048C205.436 23.6622 204.055 23.0882 202.586 23.0882C199.554 23.0882 197.087 25.5642 197.087 28.6076C197.087 31.651 199.554 34.1269 202.586 34.1269C204.055 34.1269 205.436 33.5527 206.474 32.5102ZM224.249 28.6328L230.321 34.7282C231.121 35.5302 231.121 36.8305 230.321 37.6325C229.922 38.0335 229.398 38.2339 228.875 38.2339C228.351 38.2339 227.827 38.0334 227.428 37.6325L221.355 31.5374L215.283 37.6325C214.892 38.0252 214.368 38.2339 213.836 38.2339C213.572 38.2339 213.307 38.1829 213.053 38.0776C212.289 37.7598 211.79 37.011 211.79 36.1803V14.1048C211.79 12.9706 212.707 12.0511 213.836 12.0511C214.966 12.0511 215.882 12.9707 215.882 14.1048V31.2229L227.428 19.6344C228.227 18.8324 229.522 18.8324 230.321 19.6344C231.12 20.4364 231.12 21.7366 230.321 22.5386L224.249 28.6328ZM244.582 26.5539C247.791 26.5539 250.401 29.1739 250.401 32.3942C250.401 35.6146 247.791 38.2345 244.582 38.2345H237.038C235.908 38.2345 234.992 37.315 234.992 36.1809C234.992 35.0468 235.908 34.1273 237.038 34.1273H244.582C245.534 34.1273 246.309 33.35 246.309 32.3945C246.309 31.4391 245.534 30.6617 244.582 30.6617H237.038C233.83 30.6617 231.219 28.0418 231.219 24.8215C231.219 21.6011 233.829 18.9812 237.038 18.9812H244.582C245.712 18.9812 246.628 19.9007 246.628 21.0348C246.628 22.1689 245.712 23.0884 244.582 23.0884H237.038C236.086 23.0884 235.311 23.8657 235.311 24.8212C235.311 25.7766 236.086 26.5539 237.038 26.5539H244.582ZM261.432 18.981C266.72 18.981 271.022 23.2992 271.022 28.6076C271.022 33.9159 266.72 38.2341 261.432 38.2341C256.143 38.2341 251.841 33.9159 251.841 28.6076C251.841 23.2992 256.143 18.981 261.432 18.981ZM261.432 34.1269C264.464 34.1269 266.93 31.651 266.93 28.6076C266.93 25.5642 264.464 23.0882 261.432 23.0882C258.4 23.0882 255.933 25.5642 255.933 28.6076C255.933 31.651 258.4 34.1269 261.432 34.1269ZM282.58 34.1269C283.71 34.1269 284.626 35.0465 284.626 36.1806C284.626 37.3148 283.71 38.2342 282.58 38.2342C277.207 38.2342 272.836 33.8465 272.836 28.4534V14.1033C272.836 12.9691 273.752 12.0496 274.881 12.0496C276.011 12.0496 276.927 12.9692 276.927 14.1033V28.4534C276.927 31.5817 279.463 34.1269 282.58 34.1269ZM301.723 18.981C302.853 18.981 303.769 19.9005 303.769 21.0346V28.6076C303.769 33.9159 299.467 38.2341 294.178 38.2341C288.89 38.2341 284.588 33.9159 284.588 28.6076V21.0346C284.588 19.9004 285.504 18.981 286.633 18.981C287.763 18.981 288.679 19.9005 288.679 21.0346V28.6076C288.679 31.6509 291.146 34.1269 294.178 34.1269C297.21 34.1269 299.677 31.651 299.677 28.6076V21.0346C299.677 19.9004 300.593 18.981 301.723 18.981ZM315.326 34.1269C316.456 34.1269 317.372 35.0465 317.372 36.1806C317.372 37.3148 316.456 38.2342 315.326 38.2342C309.954 38.2342 305.582 33.8465 305.582 28.4534V14.1033C305.582 12.9691 306.498 12.0496 307.628 12.0496C308.758 12.0496 309.674 12.9692 309.674 14.1033V18.9864H315.326C316.456 18.9864 317.372 19.9059 317.372 21.04C317.372 22.1741 316.456 23.0936 315.326 23.0936H309.674V28.4533C309.674 31.5816 312.21 34.1269 315.326 34.1269ZM321.243 18.981C322.373 18.981 323.289 19.9005 323.289 21.0346V36.1805C323.289 37.3147 322.373 38.2341 321.243 38.2341C320.113 38.2341 319.197 37.3146 319.197 36.1805V21.0346C319.197 19.9004 320.113 18.981 321.243 18.981ZM319.353 14.8887C319.302 14.7655 319.264 14.6345 319.238 14.5036C319.21 14.3727 319.197 14.2366 319.197 14.1031C319.197 13.9697 319.21 13.8336 319.238 13.7027C319.264 13.5717 319.302 13.4408 319.353 13.3176C319.404 13.1944 319.468 13.0737 319.543 12.9633C319.617 12.8504 319.701 12.7451 319.796 12.6502C319.89 12.5552 319.995 12.4705 320.108 12.396C320.218 12.3216 320.338 12.2574 320.461 12.2061C320.583 12.1547 320.714 12.1162 320.844 12.0906C321.509 11.9545 322.215 12.1753 322.691 12.6502C322.783 12.7452 322.87 12.8504 322.944 12.9634C323.018 13.0738 323.082 13.1944 323.133 13.3176C323.184 13.4408 323.223 13.5718 323.248 13.7027C323.277 13.8336 323.289 13.9697 323.289 14.1032C323.289 14.2366 323.277 14.3727 323.248 14.5036C323.223 14.6346 323.184 14.7655 323.133 14.8887C323.082 15.0119 323.018 15.1326 322.944 15.243C322.87 15.3559 322.783 15.4612 322.691 15.5561C322.596 15.6511 322.491 15.7358 322.379 15.8103C322.269 15.8847 322.149 15.9489 322.026 16.0002C321.903 16.0516 321.773 16.0901 321.642 16.1157C321.512 16.144 321.376 16.1568 321.243 16.1568C321.11 16.1568 320.975 16.144 320.844 16.1157C320.714 16.0901 320.583 16.0516 320.461 16.0002C320.338 15.9489 320.218 15.8847 320.108 15.8103C319.995 15.7358 319.89 15.6511 319.796 15.5561C319.701 15.4612 319.617 15.3559 319.543 15.243C319.468 15.1326 319.404 15.0119 319.353 14.8887ZM334.726 18.981C340.015 18.981 344.317 23.2992 344.317 28.6076C344.317 33.9159 340.015 38.2341 334.726 38.2341C329.438 38.2341 325.136 33.9159 325.136 28.6076C325.136 23.2992 329.438 18.981 334.726 18.981ZM334.726 34.1269C337.758 34.1269 340.225 31.651 340.225 28.6076C340.225 25.5642 337.759 23.0882 334.726 23.0882C331.694 23.0882 329.228 25.5642 329.228 28.6076C329.228 31.651 331.694 34.1269 334.726 34.1269ZM353.565 18.981C357.665 18.981 361 22.3291 361 26.444V36.1809C361 37.3151 360.084 38.2345 358.954 38.2345C357.824 38.2345 356.908 37.315 356.908 36.1809V26.444C356.908 24.5938 355.409 23.0885 353.565 23.0885C351.722 23.0885 350.222 24.5936 350.222 26.444V36.1809C350.222 37.3151 349.306 38.2345 348.176 38.2345C347.046 38.2345 346.13 37.315 346.13 36.1809V21.035C346.13 19.9008 347.046 18.9814 348.176 18.9814C348.909 18.9814 349.549 19.3687 349.911 19.9492C350.991 19.3343 352.237 18.981 353.565 18.981Z" fill="white"/>
</g>
<defs>
<clipPath id="clip0_24_56">
<rect width="361" height="56" fill="white" transform="translate(0 0.326614)"/>
</clipPath>
</defs>
</svg>
